<svg xmlns="http://www.w3.org/2000/svg" viewBox="0 0 256 256" focusable="false" color="var(--token-54c5ec09-938f-47d1-90c8-3db944d59e76, rgba(13, 13, 13, 0.7))" style="user-select: none; width: 100%; height: 100%; display: inline-block; fill: var(--token-54c5ec09-938f-47d1-90c8-3db944d59e76, rgba(13, 13, 13, 0.7)); color: var(--token-54c5ec09-938f-47d1-90c8-3db944d59e76, rgba(13, 13, 13, 0.7)); flex-shrink: 0;"><g color="var(--token-54c5ec09-938f-47d1-90c8-3db944d59e76, rgba(13, 13, 13, 0.7))" weight="bold"><path d="M216,44H40A20,20,0,0,0,20,64V224A19.82,19.82,0,0,0,31.56,242.1a20.14,20.14,0,0,0,8.49,1.9,19.91,19.91,0,0,0,12.82-4.72l.12-.11L84.47,212H216a20,20,0,0,0,20-20V64A20,20,0,0,0,216,44Zm-4,144H80a11.93,11.93,0,0,0-7.84,2.92L44,215.23V68H212Z"></path></g></svg>