<svg xmlns="http://www.w3.org/2000/svg" viewBox="0 0 256 256" focusable="false" color="var(--token-54c5ec09-938f-47d1-90c8-3db944d59e76, rgba(13, 13, 13, 0.7))" style="user-select: none; width: 100%; height: 100%; display: inline-block; fill: var(--token-54c5ec09-938f-47d1-90c8-3db944d59e76, rgba(13, 13, 13, 0.7)); color: var(--token-54c5ec09-938f-47d1-90c8-3db944d59e76, rgba(13, 13, 13, 0.7)); flex-shrink: 0;"><g color="var(--token-54c5ec09-938f-47d1-90c8-3db944d59e76, rgba(13, 13, 13, 0.7))" weight="bold"><path d="M128,20A108,108,0,1,0,236,128,108.12,108.12,0,0,0,128,20Zm0,192a84,84,0,1,1,84-84A84.09,84.09,0,0,1,128,212Zm40.49-100.49a12,12,0,0,1-17,17L140,117v51a12,12,0,0,1-24,0V117l-11.51,11.52a12,12,0,0,1-17-17l32-32a12,12,0,0,1,17,0Z"></path></g></svg>