<svg xmlns="http://www.w3.org/2000/svg" viewBox="0 0 256 256" focusable="false" color="var(--token-126f690e-73ce-492f-964f-b2d104530b6c, rgba(255, 255, 255, 0.75))" style="user-select: none; width: 100%; height: 100%; display: inline-block; fill: var(--token-126f690e-73ce-492f-964f-b2d104530b6c, rgba(255, 255, 255, 0.75)); color: var(--token-126f690e-73ce-492f-964f-b2d104530b6c, rgba(255, 255, 255, 0.75)); flex-shrink: 0;"><g color="var(--token-126f690e-73ce-492f-964f-b2d104530b6c, rgba(255, 255, 255, 0.75))" weight="regular"><path d="M165.66,101.66,139.31,128l26.35,26.34a8,8,0,0,1-11.32,11.32L128,139.31l-26.34,26.35a8,8,0,0,1-11.32-11.32L116.69,128,90.34,101.66a8,8,0,0,1,11.32-11.32L128,116.69l26.34-26.35a8,8,0,0,1,11.32,11.32ZM232,128A104,104,0,1,1,128,24,104.11,104.11,0,0,1,232,128Zm-16,0a88,88,0,1,0-88,88A88.1,88.1,0,0,0,216,128Z"></path></g></svg>