<svg xmlns="http://www.w3.org/2000/svg" viewBox="0 0 256 256" focusable="false" color="var(--token-54c5ec09-938f-47d1-90c8-3db944d59e76, rgba(13, 13, 13, 0.7))" style="user-select: none; width: 100%; height: 100%; display: inline-block; fill: var(--token-54c5ec09-938f-47d1-90c8-3db944d59e76, rgba(13, 13, 13, 0.7)); color: var(--token-54c5ec09-938f-47d1-90c8-3db944d59e76, rgba(13, 13, 13, 0.7)); flex-shrink: 0;"><g color="var(--token-54c5ec09-938f-47d1-90c8-3db944d59e76, rgba(13, 13, 13, 0.7))" weight="bold"><path d="M200,164a36.07,36.07,0,0,0-33.94,24H72a28,28,0,0,1,0-56h96a44,44,0,0,0,0-88H72a12,12,0,0,0,0,24h96a20,20,0,0,1,0,40H72a52,52,0,0,0,0,104h94.06A36,36,0,1,0,200,164Zm0,48a12,12,0,1,1,12-12A12,12,0,0,1,200,212Z"></path></g></svg>