<svg xmlns="http://www.w3.org/2000/svg" viewBox="0 0 256 256" focusable="false" color="var(--token-54c5ec09-938f-47d1-90c8-3db944d59e76, rgba(13, 13, 13, 0.7))" style="user-select: none; width: 100%; height: 100%; display: inline-block; fill: var(--token-54c5ec09-938f-47d1-90c8-3db944d59e76, rgba(13, 13, 13, 0.7)); color: var(--token-54c5ec09-938f-47d1-90c8-3db944d59e76, rgba(13, 13, 13, 0.7)); flex-shrink: 0;"><g color="var(--token-54c5ec09-938f-47d1-90c8-3db944d59e76, rgba(13, 13, 13, 0.7))" weight="bold"><path d="M216.49,79.52l-56-56A12,12,0,0,0,152,20H56A20,20,0,0,0,36,40V216a20,20,0,0,0,20,20H200a20,20,0,0,0,20-20V88A12,12,0,0,0,216.49,79.52ZM160,57l23,23H160ZM60,212V44h76V92a12,12,0,0,0,12,12h48V212Z"></path></g></svg>