<svg xmlns="http://www.w3.org/2000/svg" viewBox="0 0 256 256" focusable="false" color="var(--token-54c5ec09-938f-47d1-90c8-3db944d59e76, rgba(13, 13, 13, 0.7))" style="user-select: none; width: 100%; height: 100%; display: inline-block; fill: var(--token-54c5ec09-938f-47d1-90c8-3db944d59e76, rgba(13, 13, 13, 0.7)); color: var(--token-54c5ec09-938f-47d1-90c8-3db944d59e76, rgba(13, 13, 13, 0.7)); flex-shrink: 0;"><g color="var(--token-54c5ec09-938f-47d1-90c8-3db944d59e76, rgba(13, 13, 13, 0.7))" weight="bold"><path d="M230.15,70.54,185.46,25.86a20,20,0,0,0-28.28,0L33.86,149.17A19.86,19.86,0,0,0,28,163.31V208a20,20,0,0,0,20,20H92.69a19.85,19.85,0,0,0,14.14-5.86l79.46-79.45,4.16,13.89-34.93,34.93a12,12,0,0,0,17,17l40-40a12,12,0,0,0,3-11.94l-9.94-33.13,24.59-24.59A20,20,0,0,0,230.15,70.54ZM65,152l71-71,39,39-71,71ZM52,173l31,31H52ZM192,103,153,64l18.34-18.34,39,39Z"></path></g></svg>