<svg xmlns="http://www.w3.org/2000/svg" viewBox="0 0 256 256" focusable="false" color="var(--token-54c5ec09-938f-47d1-90c8-3db944d59e76, rgba(13, 13, 13, 0.7))" style="user-select: none; width: 100%; height: 100%; display: inline-block; fill: var(--token-54c5ec09-938f-47d1-90c8-3db944d59e76, rgba(13, 13, 13, 0.7)); color: var(--token-54c5ec09-938f-47d1-90c8-3db944d59e76, rgba(13, 13, 13, 0.7)); flex-shrink: 0;"><g color="var(--token-54c5ec09-938f-47d1-90c8-3db944d59e76, rgba(13, 13, 13, 0.7))" weight="bold"><path d="M208.49,64.47l-144,144a12,12,0,1,1-17-17l144-144a12,12,0,0,1,17,17ZM47.72,104.27A40,40,0,1,1,76,116,39.72,39.72,0,0,1,47.72,104.27ZM60,76a16,16,0,1,0,4.69-11.31A15.87,15.87,0,0,0,60,76ZM220,180a40,40,0,1,1-11.72-28.29A39.71,39.71,0,0,1,220,180Zm-24,0a15.87,15.87,0,0,0-4.69-11.32h0A16,16,0,1,0,196,180Z"></path></g></svg>