<svg width="18" height="18" viewBox="0 0 18 18" fill="none" xmlns="http://www.w3.org/2000/svg">
<path d="M18 7.57064C18 6.74264 17.3283 6.07091 16.5003 6.07091H11.9013V1.49973C11.9013 0.671727 11.2295 0 10.4015 0H7.55673C6.72791 0 6.07582 0.681545 5.87373 1.485C5.33291 3.64418 3.63845 5.34355 1.485 5.88682C0.681545 6.08973 0 6.74264 0 7.57064V10.4294C0 11.2574 0.671727 11.9291 1.49973 11.9291H6.05618V16.5003C6.05618 17.3283 6.72791 18 7.55673 18H10.4015C11.2295 18 11.8825 17.3176 12.0862 16.515C12.6352 14.355 14.3525 12.6556 16.515 12.1124C17.3185 11.9103 18 11.2574 18 10.4294V7.57064Z" fill="white" fill-opacity="0.5"/>
</svg>
